<svg width="50" height="56" viewBox="0 0 50 56" fill="none" xmlns="http://www.w3.org/2000/svg">
<path d="M11.7931 9.13843L15.2484 14.9135L18.9545 17.4301L19.4174 16.976L16.6757 8.9678L14.8352 4.96358L13.3329 4.3501L11.3047 4.5473L10.6317 6.53793L10.5835 6.72911L11.7931 9.13843Z" fill="#FF9BA1"/>
<path d="M18.8967 17.038C14.8638 13.5794 12.2969 9.3049 10.8413 6.28473V5.91821L10.6318 6.53793L9.95886 9.2046V10.3133C11.145 12.7744 13.2367 16.2575 16.523 19.076C16.8522 19.3642 17.2766 19.076 17.2766 19.076L19.2039 17.1856C19.1006 17.168 18.9952 17.1242 18.8967 17.038Z" fill="#FF7F87"/>
<path d="M39.2766 5.95572L38.4372 4.51908L36.4033 4.3501L34.5441 6.26558L31.9526 11.7867L30.6954 17.0943L33.1075 19.0759H33.477C36.7633 16.2575 38.855 12.7744 40.0411 10.3133L40.4032 9.30785L39.2766 5.95572Z" fill="#FF9BA1"/>
<path d="M38.7241 6.47789C38.8727 6.23234 39.0264 6.00616 39.1834 5.79638L38.4372 4.5192L36.4033 4.35022L34.5441 6.2657L31.9526 11.7868L30.6954 17.0944L33.1075 19.076H33.477C33.6223 18.9513 33.7645 18.825 33.9052 18.6978C35.1047 14.9963 37.1425 9.09119 38.7241 6.47789Z" fill="#FF7F87"/>
<path d="M41.013 0.341309H39.4441L36.3188 3.721L35.5493 5.07309L36.0256 5.55292C36.1137 5.46662 36.2024 5.38492 36.2916 5.30945C37.132 4.59884 38.434 5.04028 38.678 6.11346C39.4961 9.71103 41.3264 14.1934 45.3892 17.5254C46.5095 18.4442 48.207 17.7277 48.3392 16.2849C48.7829 11.4424 48.5816 2.2219 41.013 0.341309Z" fill="#E39B74"/>
<path d="M36.0258 5.55297C37.2573 3.14005 38.8848 1.11781 41.0132 0.34125C40.1266 0.120969 39.1404 0 38.0409 0C31.6478 0 28.9552 10.38 28.0278 15.3908L28.3988 16.3783L30.3099 17.1952L31.1471 16.976C31.9751 14.3583 33.7706 8.9425 35.1252 6.70425C35.4073 6.23809 35.7121 5.86031 36.0258 5.55297Z" fill="#DD8858"/>
<path d="M13.8955 0.341309H12.2438L7.65704 3.64586C7.65704 3.64586 6.77887 7.47682 6.43149 8.15287C6.08412 8.82892 6.04649 12.5472 6.00898 12.9228C5.97146 13.2984 6.5214 15.7052 6.5214 15.7052C9.27426 12.6704 10.6452 9.08945 11.322 6.11347C11.566 5.04039 12.868 4.59884 13.7083 5.30945C14.1151 5.65343 14.5135 6.10723 14.8749 6.7042C16.2295 8.94245 18.025 14.3583 18.853 16.9759H19.6551L21.5663 16.012L21.9723 15.3908C21.1445 10.919 18.9106 2.17126 13.8955 0.341309Z" fill="#E39B74"/>
<path d="M13.8955 0.34125C13.2911 0.12075 12.6466 0 11.9591 0C1.47266 0 1.1651 10.8753 1.66079 16.2848C1.79302 17.7276 3.49052 18.444 4.61074 17.5254C5.31271 16.9497 5.94654 16.3391 6.52141 15.7053C6.15216 10.7415 6.61876 2.14933 13.8955 0.34125Z" fill="#DD8858"/>
<path d="M27.8347 15.3314H25.5582L20.8821 19.204L18.4032 24.2208C18.4032 24.2208 16.4394 30.9893 15.8854 32.3619L22.7799 35.4885H27.6426L36.4876 31.3761L38.437 30.0927C37.2056 22.6845 33.0626 16.8927 27.8347 15.3314Z" fill="#EAAE8E"/>
<path d="M19.5255 29.8574C19.0459 29.8574 18.6571 29.4686 18.6571 28.989V26.5285C18.6571 26.0489 19.0459 25.66 19.5255 25.66C20.0052 25.66 20.394 26.0489 20.394 26.5285V28.989C20.394 29.4686 20.0052 29.8574 19.5255 29.8574Z" fill="#544E55"/>
<path d="M30.4745 29.8574C29.9949 29.8574 29.6061 29.4686 29.6061 28.989V26.5285C29.6061 26.0489 29.9948 25.66 30.4745 25.66C30.9542 25.66 31.343 26.0489 31.343 26.5285V28.989C31.3428 29.4686 30.9541 29.8574 30.4745 29.8574Z" fill="#544E55"/>
<path d="M13.2369 31.1608C14.3013 30.3595 15.4 29.523 15.4 29.523H17.3344C18.6795 22.3889 22.7416 16.8524 27.8346 15.3314C26.9196 15.0581 25.9716 14.9133 24.9999 14.9133C18.4765 14.9133 13.0099 21.3877 11.5627 30.0926L12.3187 30.7444L13.2369 31.1608Z" fill="#E39B74"/>
<path d="M40.458 53.3159C38.6199 49.2609 36.3584 45.9361 33.8066 43.596L32.7066 43.1647L31.1733 43.596C31.1733 43.596 27.8681 45.7492 27.7554 45.7492C27.6428 45.7492 22.009 45.6365 22.009 45.6365L19.4175 44.5151L15.1075 50.1L13.8681 53.9276L14.4878 55.4769C14.4878 55.4769 14.8439 55.7112 15.2751 56H19.3305L20.6192 55.1765H29.4454L30.6692 56H38.7329C40.1134 56 41.028 54.573 40.458 53.3159Z" fill="#E39B74"/>
<path d="M14.5932 53.3158C16.139 49.9058 17.985 47.0149 20.0504 44.789L17.2933 43.5959L16.1932 43.5961C13.6414 45.9361 11.3801 49.2609 9.5419 53.3158C8.97194 54.5729 9.88654 55.9999 11.2668 55.9999H16.3181C14.9378 55.9999 14.0232 54.5729 14.5932 53.3158Z" fill="#DD8858"/>
<path d="M33.9112 29.1901C31.935 29.1901 30.1063 29.678 28.6094 30.5052L27.8621 31.1106H22.1437L21.2658 30.5052C20.0258 29.8198 18.5578 29.3686 16.9672 29.2334L15.1074 29.6457L12.4877 32.3781C12.4877 32.3781 11.5389 36.519 11.5626 36.6035C11.5862 36.688 13.6474 40.6035 14.2647 41.1387C14.882 41.6739 19.3609 43.3923 19.3609 43.3923C19.3609 43.3923 22.8186 44.5472 22.7799 44.7444C22.7411 44.9416 24.9998 46.1247 24.9998 46.1247L27.1092 46.3643C28.697 46.0796 30.135 45.4904 31.3147 44.6788C32.3733 43.9505 33.6001 43.515 34.8812 43.4163C39.6684 43.0471 43.078 39.8129 43.078 36.3192C43.0781 32.3818 38.9739 29.1901 33.9112 29.1901Z" fill="#FEE6C1"/>
<path d="M22.8294 44.2409C21.9171 43.4323 20.8288 42.9141 19.6675 42.7264C15.3949 42.0361 12.4689 38.5989 12.7292 35.0061C12.9128 32.4722 14.5874 30.3548 16.9674 29.2334C16.6378 29.2054 16.3033 29.1899 15.9642 29.1899C10.9014 29.1899 6.79712 32.3817 6.79712 36.3191C6.79712 39.8692 10.2645 43.0396 14.985 43.4136C16.2681 43.5153 17.4977 43.9471 18.5579 44.677C20.2566 45.8463 22.4905 46.5563 24.9375 46.5563C25.6844 46.5563 26.4112 46.4893 27.1093 46.3642C25.45 46.0103 23.9783 45.2593 22.8294 44.2409Z" fill="#FCD79B"/>
<path d="M1.04499 37.8625C0.737426 37.5115 0.772645 36.9776 1.12363 36.67C6.87632 31.6287 14.7317 32.9725 15.0631 33.0321C15.5225 33.1148 15.8279 33.5541 15.7452 34.0134C15.6626 34.4724 15.2232 34.7779 14.7648 34.6956C14.6879 34.682 7.36599 33.4466 2.2375 37.941C1.88674 38.2486 1.35277 38.2137 1.04499 37.8625Z" fill="#FCCC80"/>
<path d="M5.8916 43.0255C5.50168 42.769 5.39339 42.2451 5.64977 41.8551C8.6706 37.2613 14.1646 36.1713 14.397 36.1272C14.8558 36.04 15.2978 36.3412 15.385 36.7997C15.4721 37.2578 15.1716 37.6997 14.7138 37.7874C14.6638 37.7971 9.68155 38.8 7.06202 42.7837C6.80586 43.1732 6.28207 43.2822 5.8916 43.0255Z" fill="#FCCC80"/>
<path d="M47.7624 37.9412C42.6154 33.4306 35.3092 34.6824 35.236 34.6956C34.7771 34.7785 34.3373 34.4729 34.2547 34.0135C34.172 33.5542 34.4774 33.1148 34.9368 33.0322C35.2683 32.9726 43.1236 31.6287 48.8763 36.6701C49.2273 36.9777 49.2625 37.5117 48.9549 37.8627C48.6473 38.2135 48.1135 38.2489 47.7624 37.9412Z" fill="#FCCC80"/>
<path d="M42.9379 42.7837C40.3062 38.7816 35.3373 37.7971 35.2873 37.7877C34.8288 37.7006 34.5277 37.2582 34.6149 36.7997C34.7019 36.3412 35.144 36.0403 35.6029 36.1273C35.8353 36.1713 41.3293 37.2614 44.3501 41.8551C44.6066 42.245 44.4983 42.7691 44.1083 43.0255C43.7186 43.2818 43.1945 43.174 42.9379 42.7837Z" fill="#FCCC80"/>
<path d="M25 36.1448C25 36.1448 24.6 38.3846 22.78 39.0619L22.947 41.1675C22.983 41.6214 23.3618 41.9713 23.8171 41.9713H26.1826C26.638 41.9713 27.0167 41.6213 27.0527 41.1675L27.2197 39.0619C25.3999 38.3846 25 36.1448 25 36.1448Z" fill="#FEF0DB"/>
<path d="M32.0898 35.7138C31.6423 35.5881 31.1766 35.8492 31.0479 36.2958C31.0231 36.3821 30.4148 38.4094 28.3322 38.4094C26.4691 38.4094 25.9332 36.4481 25.845 36.0579V33.4488C25.845 32.9821 25.4667 32.6038 25 32.6038C24.5333 32.6038 24.155 32.9821 24.155 33.4488V36.0615C24.0694 36.4543 23.5491 38.4094 21.6678 38.4094C19.5899 38.4094 18.9797 36.391 18.9523 36.2965C18.8268 35.8489 18.3631 35.5865 17.9146 35.71C17.4646 35.8338 17.2001 36.299 17.3239 36.749C17.6427 37.9079 18.9609 40.0996 21.6679 40.0996C23.2742 40.0996 24.3418 39.2544 25.0002 38.2886C25.6586 39.2543 26.7261 40.0996 28.3324 40.0996C31.0395 40.0996 32.3576 37.9078 32.6764 36.749C32.7994 36.3007 32.537 35.8398 32.0898 35.7138Z" fill="#FCCC80"/>
<path d="M23.9777 31.1106L25.5771 34.2204H26.6993C27.9126 33.4528 28.7441 32.005 28.7441 30.9772C28.7441 29.5679 27.182 29.465 25.2137 29.4596L23.9777 31.1106Z" fill="#FF9BA1"/>
<path d="M24.6547 30.9771C24.6547 29.9493 25.486 29.6166 26.6993 29.5097C26.1892 29.4647 25.612 29.4592 25 29.4592C22.9321 29.4592 21.2559 29.5172 21.2559 30.9771C21.2559 32.4371 22.9321 34.7464 25 34.7464C25.612 34.7464 26.1892 34.5431 26.6993 34.2203C25.486 33.4527 24.6547 32.0049 24.6547 30.9771Z" fill="#FF636E"/>
<path d="M27.5257 51.1682H26.9668L24.4597 54.1528L23.9245 55.3641L24.3819 55.9999H30.6694C29.738 53.8192 28.6753 52.1629 27.5257 51.1682Z" fill="#FEF0DB"/>
<path d="M27.5256 51.1682C26.7214 50.4724 25.8745 50.1 25 50.1C22.8751 50.1 20.9135 52.2938 19.3305 56H24.3818C25.3132 53.8193 26.3759 52.1629 27.5256 51.1682Z" fill="#FEE6C1"/>
</svg>
